<svg width="43" height="30" viewBox="0 0 43 30" fill="none" xmlns="http://www.w3.org/2000/svg">
<path fill-rule="evenodd" clip-rule="evenodd" d="M9.95855 14.8303L9.92092 17.1189H14.0536C14.9293 17.1189 15.6443 17.8339 15.6443 18.7097V20.3005H15.6272V26.52C15.6272 27.3958 14.9122 28.1108 14.0364 28.1108H12.4457V20.8753C12.4457 20.2184 12.5688 20.3005 11.9359 20.3005H7.84434V20.2903H5.80539C4.49171 20.2903 3.41408 19.2126 3.41408 17.8989V10.0647C3.41408 8.72711 4.50881 7.63237 5.84645 7.63237H7.05066C8.9596 7.63237 9.14776 8.54579 9.63355 9.50026L11.6657 10.3008C13.1367 10.9645 12.7604 11.0945 13.7593 9.85605L15.0593 8.24816C15.6957 7.23211 18.2101 8.29263 17.1325 9.99974L15.2475 12.5724C14.4641 13.6432 13.4207 13.7937 12.1583 13.2703L9.96197 12.4971V14.8303H9.95855ZM40.7309 26.6226C40.7172 26.5234 40.6762 26.4311 40.6009 26.3558C40.0501 25.8016 39.3557 25.35 38.562 25.0387C38.0078 24.8232 37.4022 24.6761 36.7693 24.6111L36.8891 22.7158H41.203C41.6512 22.7158 42.0207 22.3463 42.0207 21.8982C42.0207 18.5113 41.2236 15.9661 42.0207 12.1105C42.2567 10.9679 39.8996 10.8037 39.8996 12.1721V20.8513H31.7404C31.2922 20.8513 30.9228 21.4534 30.9228 21.9016V22.5379C30.9228 22.6371 31.0049 22.7192 31.1041 22.7192H35.4317L35.5993 24.594C34.9288 24.6384 34.2891 24.7753 33.6972 24.9908C32.9378 25.2679 32.2638 25.675 31.7164 26.1745C31.5864 26.2942 31.5386 26.4721 31.5796 26.6329C31.3675 26.7903 31.2307 26.9476 31.2307 27.3308C31.2307 27.7139 31.6207 28.1997 32.0996 28.1997C32.5786 28.1997 32.9686 27.7139 32.9686 27.3308C32.9686 26.9476 32.8283 26.7868 32.6128 26.6295C33.0199 26.3147 33.492 26.0513 34.012 25.8632C34.5696 25.6579 35.1854 25.5347 35.8354 25.5142L35.9312 26.455L35.9346 26.4961C35.5686 26.5987 35.2983 26.8929 35.2983 27.3342C35.2983 27.7755 35.6883 28.2032 36.1672 28.2032C36.6462 28.2032 37.0362 27.7721 37.0362 27.3342C37.0362 26.8963 36.7693 26.6021 36.4067 26.4995L36.4101 26.455L36.4785 25.5245C37.0978 25.5655 37.6862 25.699 38.2199 25.9076H38.2233C38.7433 26.1095 39.212 26.3832 39.6122 26.715C39.4514 26.8724 39.3522 26.975 39.3522 27.3342C39.3522 27.6934 39.7422 28.2032 40.2212 28.2032C40.7001 28.2032 41.0901 27.7174 41.0901 27.3342C41.0936 26.9408 40.9499 26.78 40.7309 26.6226ZM33.7691 0.116316C31.932 0.116316 30.4404 1.60789 30.4404 3.445C30.4404 5.28211 31.932 6.77368 33.7691 6.77368C35.6062 6.77368 37.0978 5.28211 37.0978 3.445C37.0943 1.60789 35.6062 0.116316 33.7691 0.116316ZM32.3836 13.1711L32.4486 17.1189H28.3159C27.4401 17.1189 26.7251 17.8339 26.7251 18.7097V20.3005H26.7422V26.52C26.7422 27.3958 27.4572 28.1108 28.333 28.1108H29.9238V20.7555C29.9238 20.0576 30.1872 20.3005 30.9741 20.3005H34.5251V20.2903H36.5641C37.8812 20.2903 38.9554 19.2126 38.9554 17.8989V9.59947C38.9554 8.26184 37.8607 7.16711 36.523 7.16711H35.3188C32.8146 7.16711 33.2114 8.89132 32.103 9.97579C31.0083 11.0466 31.282 11.1697 29.787 11.1697H26.5643C24.6417 11.1697 24.1696 13.6842 26.9099 13.6842H29.8657C31.1828 13.6842 31.2957 13.8929 32.3836 13.1711ZM29.2225 14.1974C24.0362 14.1974 20.0164 14.1974 14.8301 14.1974C14.7514 14.1974 14.6899 14.2624 14.6899 14.3376V16.3629C14.6899 16.4416 14.7549 16.5032 14.8301 16.5032C17.5396 16.5032 18.1588 16.5032 20.8717 16.5032V28.925C20.8717 29.0276 20.9572 29.1132 21.0599 29.1132H21.1317H21.1351H23.1262H23.1296H23.2014C23.3041 29.1132 23.3896 29.0276 23.3896 28.925V16.5066C25.1788 16.5066 27.4333 16.5066 29.2225 16.5066C29.2978 16.5066 29.3628 16.4416 29.3628 16.3663V14.3411C29.3628 14.2589 29.2978 14.1974 29.2225 14.1974ZM0.441183 12.5826H1.60092C1.83697 12.5826 1.99434 12.7811 2.03197 13.0137C2.46987 15.7779 2.70934 18.5421 2.69566 21.3029H10.6325C10.9472 21.3029 11.2004 21.5595 11.2004 21.8708V23.0203H10.7454V28.9079C10.7454 29.0037 10.6667 29.0824 10.5709 29.0824H9.04855C8.95276 29.0824 8.87408 29.0037 8.87408 28.9079V26.3489H2.38434C2.28855 27.1289 2.17224 27.909 2.03197 28.689C1.99092 28.9216 1.83697 29.12 1.60092 29.12H0.441183C0.20513 29.12 -0.0548695 28.9182 0.0101305 28.689C1.53934 23.3658 1.22118 18.1624 0.0101305 13.0171C-0.0446063 12.7845 0.20513 12.5826 0.441183 12.5826ZM8.8775 25.5553V23.0237H2.67171C2.6375 24.1013 2.56224 24.4776 2.44592 25.5553H8.8775ZM6.97539 0C8.8125 0 10.3041 1.49158 10.3041 3.32868C10.3041 5.16579 8.8125 6.65737 6.97539 6.65737C5.13829 6.65737 3.64671 5.16579 3.64671 3.32868C3.64671 1.49158 5.13487 0 6.97539 0Z" fill="#0B8041"/>
</svg>
