<svg width="21" height="42" viewBox="0 0 21 42" fill="none" xmlns="http://www.w3.org/2000/svg">
<path fill-rule="evenodd" clip-rule="evenodd" d="M12.6746 15.9932V5.04678C12.6746 4.12991 12.2985 3.29625 11.6937 2.6898C11.0888 2.08496 10.2536 1.70893 9.33671 1.70893C8.41984 1.70893 7.58618 2.08496 6.97973 2.6898C6.37489 3.29625 5.99886 4.12991 5.99886 5.04678V26.098C3.68668 27.2837 2.10576 29.6919 2.10576 32.4697C2.10576 36.4204 5.3076 39.6238 9.2599 39.6238C13.2122 39.6238 16.4156 36.4204 16.4156 32.4697C16.4156 29.7543 14.9035 27.3925 12.6746 26.1796V15.9932ZM10.7176 27.4117C12.9146 28.0437 14.5227 30.0679 14.5227 32.4697C14.5227 35.3755 12.1673 37.7309 9.2599 37.7309C6.35408 37.7309 3.9971 35.3755 3.9971 32.4697C3.9971 30.0679 5.60523 28.0437 7.80379 27.4117V8.88388C7.80379 7.07414 10.7176 7.14614 10.7176 8.88388V27.4117ZM16.1884 5.82924V4.28033H20.2255C20.6528 4.28033 21 4.62595 21 5.05478C21 5.48202 20.6528 5.82924 20.2255 5.82924H16.1884ZM16.1884 10.0584V8.50945H20.2255C20.6528 8.50945 21 8.85667 21 9.28391C21 9.71114 20.6528 10.0584 20.2255 10.0584H16.1884ZM16.1884 14.2875V12.7386H20.2255C20.6528 12.7386 21 13.0858 21 13.513C21 13.9403 20.6528 14.2875 20.2255 14.2875H16.1884ZM16.1884 18.5166V16.9677H20.2255C20.6528 16.9677 21 17.3149 21 17.7422C21 18.1694 20.6528 18.5166 20.2255 18.5166H16.1884ZM16.1884 22.7457V21.1968H20.2255C20.6528 21.1968 21 21.544 21 21.9713C21 22.4001 20.6528 22.7457 20.2255 22.7457H16.1884ZM14.3851 24.7555C16.8781 26.4148 18.5198 29.2502 18.5198 32.4697C18.5198 37.5837 14.3739 41.7296 9.2599 41.7296C4.14592 41.7296 0 37.5837 0 32.4697C0 29.1846 1.71053 26.298 4.28993 24.6547V5.04678C4.28993 3.65788 4.85797 2.39698 5.77164 1.48171C6.68691 0.568043 7.9478 0 9.33671 0C10.7256 0 11.9881 0.568043 12.9018 1.48171C13.8171 2.39698 14.3851 3.65788 14.3851 5.04678V24.7555Z" fill="#0B8041"/>
</svg>
