<svg width="280" height="60" viewBox="0 0 280 60" fill="none" xmlns="http://www.w3.org/2000/svg">
  <!-- Icon -->
  <g transform="translate(0, 2) scale(0.088)">
    <path d="M585.922 157.054C586.29 157.065 586.744 157.131 587.203 157.256C587.666 157.382 588.07 157.551 588.366 157.73C588.524 157.826 588.619 157.904 588.672 157.955L588.729 158.014L602.74 185.131L602.741 185.132C604.332 188.205 607.16 195.206 609.896 202.473C612.623 209.714 615.19 217.038 616.264 220.694L616.265 220.698L619.147 230.438V230.439L622.125 241.315V241.316C623.006 244.53 624.825 253.768 626.486 263.022C628.151 272.296 629.604 281.287 629.791 284.036V284.037C631.273 305.636 631.273 327.133 629.812 348.775C629.665 350.937 628.065 360.899 626.296 371.104C624.639 380.662 622.894 390.095 622.155 393.159L622.021 393.685L619.087 404.288C608.706 441.787 592.276 476.665 568.199 506.879L556.25 521.871V521.872C543.826 537.471 529.459 550.74 513.69 562.974L503.528 570.848L496.63 575.762L481.079 585.871C469.808 593.181 455.856 599.743 443.468 605.349C430.18 611.358 403.019 620.546 389.163 623.26H389.162L378.309 625.39H378.308C368.566 627.307 355.541 629.384 345.62 629.957L344.67 630.007L333.716 630.524C314.019 631.451 284.033 630.763 265.234 627.208L250.06 624.333H250.059C238.778 622.199 230.195 619.239 222.969 614.391C215.753 609.55 209.742 602.726 203.775 592.63C200.163 586.49 196.465 580.4 194.292 574.041L194.29 574.036L189.639 560.533H189.638C188.684 557.768 187.659 554.261 187.13 551.47L187.031 550.921L184.841 537.921C183.732 531.33 183.518 525.18 184.514 518.729L184.515 518.724L185.982 509.068V509.067C190.713 477.903 208.82 451.785 232.836 431.677L233.984 430.724C249.715 417.784 278.629 402.503 297.882 396.875L298.791 396.615L327.817 388.468L327.825 388.466L346.989 383.007L347.012 383.001L347.033 382.995L354.786 380.596L354.856 380.573L363.643 377.492L363.666 377.484L363.688 377.475L384.693 369.535C397.784 364.586 414.812 356.316 430.935 346.679C447.03 337.058 462.383 325.979 472.009 315.371L472.01 315.37C472.491 314.839 472.703 314.193 472.809 313.761C472.927 313.279 472.98 312.77 472.995 312.303C473.02 311.513 472.943 310.474 472.619 309.667L472.551 309.508L472.473 309.354C472.063 308.606 471.351 308.192 470.991 308.001C470.493 307.738 469.927 307.532 469.393 307.383C468.852 307.233 468.273 307.12 467.728 307.072C467.252 307.03 466.542 307.01 465.889 307.242L465.881 307.245L443.077 315.454L440.112 316.521L440.147 316.556L433.037 318.965L424.044 321.73L424.032 321.734L410.629 325.94L391.874 330.846L391.86 330.849L391.848 330.853L383.593 333.131L369.29 336.05L356.989 338.491L342.052 341.327L324.331 343.45H324.329C312.892 344.827 304.573 345.242 296.321 345.771C288.06 346.3 279.906 346.941 268.915 348.777L256.76 350.803L256.703 350.813L256.647 350.826L247.22 352.956H247.219C240.231 354.541 233.413 356.439 226.746 358.585L226.741 358.586L221.2 360.385C199.133 367.555 176.309 377.577 157.819 392.858L157.818 392.859C142.731 405.333 124.815 426.969 116.867 445.015L113.828 451.88L113.825 451.886C111.217 457.83 109.802 464.491 108.281 470.496L105.407 481.786C104.66 484.719 104.654 487.904 104.747 490.894C104.843 493.983 105.041 496.824 104.835 499.493C104.148 508.298 105.939 515.87 107.426 523.856L107.427 523.861C109.123 532.841 111.017 541.743 114.755 550.241V550.242C115.072 550.966 115.417 551.96 115.611 552.894C115.708 553.36 115.757 553.765 115.762 554.086C115.764 554.275 115.749 554.397 115.737 554.466C115.702 554.496 115.647 554.54 115.562 554.594C115.308 554.756 114.936 554.927 114.493 555.065C114.055 555.201 113.612 555.285 113.24 555.312C112.828 555.342 112.671 555.289 112.703 555.301L112.692 555.298L112.306 555.148C108.263 553.514 102.98 549.341 97.8779 544.345C92.6692 539.245 87.9113 533.55 85.2129 529.512L85.2119 529.511C76.8874 517.063 69.4425 498.746 66.6182 484.012C65.3462 477.377 63.9166 470.6 63.4102 464.02L63.3223 462.707C62.8696 454.845 62.5672 445.136 62.9717 435.594C63.3774 426.022 64.4897 416.753 66.8018 409.706L69.1797 402.468V402.465C72.4293 392.532 76.5873 384.094 82.2988 375.536L82.2979 375.535C103.453 343.9 136.288 325.446 172.029 313.483H172.031L180.209 310.734L180.21 310.735C183.011 309.808 186.444 308.892 189.483 308.106L189.484 308.107L199.655 305.501L199.659 305.5C203.167 304.596 206.687 303.407 209.804 302.82L228.256 299.452C235.987 298.04 239.876 297.721 243.864 297.302C247.92 296.876 252.01 296.353 260.013 294.535L260.014 294.534C262.256 294.023 264.867 294.079 267.79 294.2C270.598 294.315 273.731 294.495 276.568 294.042C281.742 293.217 286.761 292.746 291.82 292.315C296.862 291.885 301.965 291.494 307.207 290.826L307.21 290.825L320.193 289.15H320.195C325.784 288.423 331.007 287.59 336.321 286.787H336.324L352.178 284.367L352.179 284.368C361.922 282.892 371.169 281.146 380.683 279.006L380.682 279.005L391.098 276.671C394.987 275.807 398.669 275.008 402.501 273.913L402.5 273.912L416 270.067L416.01 270.064L425.912 267.19L425.911 267.189C450.962 259.94 482.359 247.176 510.779 230.339C539.154 213.53 564.805 192.521 578.065 168.685L583.068 159.69L583.072 159.682C583.372 159.137 583.824 158.53 584.318 158.01C584.838 157.464 585.263 157.161 585.472 157.066L585.473 157.067C585.387 157.106 585.502 157.042 585.922 157.054Z" fill="#ffffff" stroke="#ffffff" stroke-width="4"/>
    <path d="M282.084 3.19043C303.189 1.64684 324.088 1.67696 345.278 2.8584L349.521 3.11035C351.793 3.25359 354.256 3.78811 356.912 4.40625C359.509 5.01045 362.304 5.6985 365.008 6.03516H365.012C374.09 7.14691 383.165 8.63635 391.709 11.5654V11.5664C397.445 13.5363 402.979 17.3648 408.4 20.9961L410.717 22.5342C416.862 26.579 423.282 32.8886 427.76 40.1416C432.107 47.1838 434.5 54.9033 433.316 62.2041L433.191 62.9092C429.274 83.0581 413.102 99.649 394.637 109.025L377.458 117.75C361.452 125.867 330.292 137.49 312.478 142.846H312.476L303.988 145.406L294.16 148.202L283.044 150.988H283.042L273.346 153.429L273.322 153.435L262.386 156.33L262.369 156.334L262.353 156.339L244.759 161.322L244.73 161.33L244.701 161.339L235.667 164.192L227.216 166.838H227.215C219.403 169.289 209.077 173.559 201.78 176.701C201.036 177.012 200.596 177.585 200.354 178.005C200.102 178.445 199.952 178.915 199.867 179.328C199.781 179.746 199.744 180.191 199.769 180.616C199.789 180.972 199.865 181.565 200.204 182.114V182.115C200.208 182.121 200.211 182.126 200.215 182.132C200.218 182.137 200.221 182.143 200.225 182.148V182.147C200.498 182.58 200.873 182.924 201.16 183.157C201.488 183.423 201.862 183.676 202.242 183.893C202.621 184.109 203.044 184.313 203.473 184.466C203.871 184.608 204.413 184.757 204.99 184.744L204.991 184.745V184.744L204.993 184.745L204.992 184.744L237.759 184.041C240.063 183.996 242.386 183.605 244.598 183.151C246.897 182.679 248.916 182.178 251.015 181.797C253.995 181.259 257.147 181.136 260.46 181.077C263.724 181.019 267.184 181.024 270.55 180.704L293.437 178.533L293.458 178.531L321.017 175.615C324.882 175.205 328.571 174.521 332.101 173.978C335.672 173.428 339.189 173.002 342.964 173.041V173.042L342.966 173.041H342.968C344.843 173.064 346.929 172.638 348.779 172.233C350.734 171.806 352.445 171.398 353.917 171.277L353.918 171.278C358.57 170.909 363.078 170.613 367.689 169.852H367.69L382.699 167.37L382.698 167.369L393.788 165.614L393.804 165.612L418.798 161.456H418.799C428.076 159.913 439.858 156.201 451.199 151.512C462.54 146.823 473.585 141.098 481.356 135.462L481.357 135.461C485.58 132.395 489.551 128.458 492.959 124.987C500.935 116.922 505.417 107.501 508.188 96.8584L508.188 96.8574C510.218 89.0791 509.891 83.4979 508.883 78.126C508.106 73.985 507.032 70.3317 506.278 65.834L510.82 69.1445V69.1455C518.459 74.722 525.147 80.5699 532.021 87.2812C533.143 88.3764 534.346 89.4245 535.505 90.4365C536.679 91.4617 537.812 92.4554 538.875 93.4961C540.865 95.445 542.496 97.4594 543.466 99.8555L543.651 100.34C550.123 118.415 545.689 134.335 533.848 148.619L533.278 149.298C522.497 162.011 509.91 171.317 495.427 179.297C484.704 185.195 471.192 191.978 460.078 195.935L460.076 195.936L438.079 203.793C434.937 204.915 431.634 205.968 428.369 206.774L411.48 210.931L411.473 210.932L411.466 210.934L400.137 213.808C396.658 214.686 393.372 215.439 389.751 216.162L388.177 216.471L372.554 219.427H372.552C368.703 220.159 365.542 220.815 361.692 220.757H361.294C359.293 220.799 357.25 221.405 355.512 221.952C353.637 222.542 352.117 223.06 350.786 223.237L350.522 223.268L326.813 225.583L326.798 225.585L301.619 228.243L266.432 228.986H266.431C263.501 229.05 260.669 229.288 257.919 229.493C255.147 229.699 252.432 229.874 249.612 229.834C247.26 229.8 245.114 230.122 243.131 230.446C241.108 230.777 239.295 231.102 237.368 231.179L216.905 231.944L216.79 231.948L216.676 231.966L196.791 235.025C193.167 235.577 189.301 236.352 185.63 237.179L184.069 237.536L172.721 240.162H172.719C159.895 243.143 148.541 247.243 136.527 252.313L134.116 253.34C109.71 263.801 87.3151 277.839 68.2988 296.58L67.3955 297.476C53.4683 311.384 41.3268 325.732 31.5537 342.874C20.8861 361.583 16.8011 372.162 10.5938 391.496C9.78372 388.907 9.21289 386.607 8.71094 384.026L8.54688 383.161L5.98438 369.044L5.9834 369.041C5.06669 364.029 4.41204 358.63 3.83398 353.364L3.83301 353.362L2.64258 342.633L2.16992 326.045C1.96402 318.693 1.92362 312.491 2.16992 305.183L2.60059 292.503L3.91797 279.805V279.804C4.45827 274.566 5.00869 268.988 5.92188 263.995L8.83691 248.054C9.50798 244.393 10.4664 240.229 11.5078 236.39L11.5098 236.383L13.8457 227.657C25.6853 183.431 50.7632 139.414 81.3809 105.194C94.014 91.076 103.196 82.5374 117.383 71.1475L120.29 68.8281C154.461 41.7166 193.424 22.8344 235.735 11.9209H235.737C239.529 10.9373 249.589 8.86509 259.534 6.97363C269.522 5.07395 279.127 3.40835 282.085 3.19141L282.084 3.19043Z" fill="#ffffff" stroke="#ffffff" stroke-width="4"/>
  </g>
  
  <!-- Text GREEN TER -->
  <text x="70" y="42" font-family="system-ui, -apple-system, BlinkMacSystemFont, 'Segoe UI', Roboto, sans-serif" font-size="32" font-weight="700" fill="#ffffff" letter-spacing="1">
    GREEN TER
  </text>
</svg>
